<svg xmlns="http://www.w3.org/2000/svg" viewBox="0 0 512 512" role="img" aria-label="Arogya Drishti icon">
  <defs>
    <linearGradient id="bg" x1="0" y1="0" x2="1" y2="1">
      <stop offset="0%" stop-color="#0F766E"/>
      <stop offset="55%" stop-color="#14B8A6"/>
      <stop offset="100%" stop-color="#06B6D4"/>
    </linearGradient>
    <linearGradient id="shine" x1="0" y1="0" x2="1" y2="1">
      <stop offset="0%" stop-color="#FFFFFF" stop-opacity="0.34"/>
      <stop offset="100%" stop-color="#FFFFFF" stop-opacity="0"/>
    </linearGradient>
  </defs>
  <rect x="24" y="24" width="464" height="464" rx="108" fill="url(#bg)"/>
  <path d="M120 120c72-52 200-56 272 8 54 48 68 122 36 192-22 48-64 90-122 126l-50 32-50-32c-58-36-100-78-122-126-32-70-18-144 36-192z" fill="url(#shine)"/>
  <rect x="224" y="122" width="64" height="268" rx="18" fill="#FFFFFF"/>
  <rect x="122" y="224" width="268" height="64" rx="18" fill="#FFFFFF"/>
  <circle cx="396" cy="396" r="44" fill="#082F49" fill-opacity="0.18"/>
</svg>